<svg xmlns="http://www.w3.org/2000/svg" xmlns:xlink="http://www.w3.org/1999/xlink" width="500" zoomAndPan="magnify" viewBox="0 0 375 374.999991" height="500" preserveAspectRatio="xMidYMid meet" version="1.0"><defs><g/><clipPath id="e2bfd7c335"><path d="M 0.015625 116.59375 L 374.984375 116.59375 L 374.984375 256.84375 L 0.015625 256.84375 Z M 0.015625 116.59375 " clip-rule="nonzero"/></clipPath><clipPath id="2a6a191a0d"><path d="M 0 116.59375 L 187.332031 116.59375 L 187.332031 256.503906 L 0 256.503906 Z M 0 116.59375 " clip-rule="nonzero"/></clipPath></defs><rect x="-37.5" width="450" fill="#ffffff" y="-37.499999" height="449.999989" fill-opacity="1"/><rect x="-37.5" width="450" fill="#ffffff" y="-37.499999" height="449.999989" fill-opacity="1"/><rect x="-37.5" width="450" fill="#ffffff" y="-37.499999" height="449.999989" fill-opacity="1"/><g clip-path="url(#e2bfd7c335)"><path stroke-linecap="butt" transform="matrix(0.75, 0, 0, 0.751885, 0.0141806, 116.593725)" fill="none" stroke-linejoin="miter" d="M 0.00192592 0.0000330587 L 499.960324 0.0000330587 L 499.960324 186.531312 L 0.00192592 186.531312 L 0.00192592 0.0000330587 " stroke="#000000" stroke-width="6" stroke-opacity="1" stroke-miterlimit="4"/></g><g clip-path="url(#2a6a191a0d)"><path fill="#000000" d="M 0 116.59375 L 187.332031 116.59375 L 187.332031 256.503906 L 0 256.503906 Z M 0 116.59375 " fill-opacity="1" fill-rule="nonzero"/></g><g fill="#ffffff" fill-opacity="1"><g transform="translate(3.992201, 192.668839)"><g><path d="M 11.519531 0 L 15.261719 0 L 15.261719 -26.1875 L 25.292969 -26.1875 L 25.292969 -29.757812 L 1.445312 -29.757812 L 1.445312 -26.1875 L 11.519531 -26.1875 Z M 11.519531 0 "/></g></g></g><g fill="#ffffff" fill-opacity="1"><g transform="translate(33.995954, 192.668839)"><g><path d="M 4.335938 0 L 8.078125 0 L 8.078125 -10.671875 L 14.625 -10.671875 L 21.894531 0 L 26.398438 0 L 18.917969 -11.054688 C 23.253906 -12.117188 25.929688 -15.390625 25.929688 -20.191406 C 25.929688 -26.101562 21.851562 -29.757812 15.6875 -29.757812 L 4.335938 -29.757812 Z M 8.078125 -14.242188 L 8.078125 -26.1875 L 15.261719 -26.1875 C 19.597656 -26.1875 22.105469 -23.976562 22.105469 -20.191406 C 22.105469 -16.410156 19.597656 -14.242188 15.261719 -14.242188 Z M 8.078125 -14.242188 "/></g></g></g><g fill="#ffffff" fill-opacity="1"><g transform="translate(66.167032, 192.668839)"><g><path d="M 0.722656 0 L 4.71875 0 L 7.4375 -6.757812 L 21.933594 -6.757812 L 24.742188 0 L 28.695312 0 L 16.453125 -29.757812 L 12.964844 -29.757812 Z M 8.882812 -10.246094 L 14.707031 -24.527344 L 20.53125 -10.246094 Z M 8.882812 -10.246094 "/></g></g></g><g fill="#ffffff" fill-opacity="1"><g transform="translate(98.805561, 192.668839)"><g><path d="M 12.582031 0 L 16.070312 0 L 27.886719 -29.757812 L 23.933594 -29.757812 L 18.960938 -17.21875 L 14.324219 -5.398438 L 9.648438 -17.21875 L 4.71875 -29.757812 L 0.722656 -29.757812 Z M 12.582031 0 "/></g></g></g><g fill="#ffffff" fill-opacity="1"><g transform="translate(130.636667, 192.668839)"><g><path d="M 4.335938 0 L 22.871094 0 L 22.871094 -3.484375 L 8.078125 -3.484375 L 8.078125 -13.433594 L 21.339844 -13.433594 L 21.339844 -16.875 L 8.078125 -16.875 L 8.078125 -26.273438 L 22.402344 -26.273438 L 22.402344 -29.757812 L 4.335938 -29.757812 Z M 4.335938 0 "/></g></g></g><g fill="#ffffff" fill-opacity="1"><g transform="translate(159.493035, 192.668839)"><g><path d="M 4.335938 0 L 22.53125 0 L 22.53125 -3.570312 L 8.078125 -3.570312 L 8.078125 -29.757812 L 4.335938 -29.757812 Z M 4.335938 0 "/></g></g></g><g fill="#000000" fill-opacity="1"><g transform="translate(250.139225, 194.255773)"><g><path d="M 15.40625 0.566406 C 24.507812 0.566406 30.207031 -6.042969 29.378906 -15.332031 L 14.085938 -15.332031 L 14.085938 -9.96875 L 21.371094 -9.96875 C 20.617188 -7.742188 18.503906 -6.230469 15.480469 -6.230469 C 11.253906 -6.230469 8.796875 -9.214844 8.796875 -13.214844 C 8.796875 -17.371094 11.480469 -20.203125 15.40625 -20.203125 C 17.746094 -20.203125 19.75 -19.183594 20.769531 -17.519531 L 28.886719 -17.519531 C 27.339844 -23.296875 21.976562 -27 15.292969 -27 C 6.984375 -27 1.285156 -21.335938 1.285156 -13.214844 C 1.285156 -5.058594 7.023438 0.566406 15.40625 0.566406 Z M 15.40625 0.566406 "/></g></g></g><g fill="#000000" fill-opacity="1"><g transform="translate(280.798757, 194.255773)"><g><path d="M 15.671875 0.566406 C 24.089844 0.566406 30.058594 -5.136719 30.058594 -13.214844 C 30.058594 -21.296875 24.089844 -27 15.671875 -27 C 7.25 -27 1.285156 -21.296875 1.285156 -13.214844 C 1.285156 -5.136719 7.25 0.566406 15.671875 0.566406 Z M 9.023438 -13.214844 C 9.023438 -17.179688 11.78125 -19.9375 15.671875 -19.9375 C 19.597656 -19.9375 22.316406 -17.179688 22.316406 -13.214844 C 22.316406 -9.25 19.597656 -6.496094 15.671875 -6.496094 C 11.78125 -6.496094 9.023438 -9.25 9.023438 -13.214844 Z M 9.023438 -13.214844 "/></g></g></g></svg>